<mxfile host="app.diagrams.net" modified="2021-04-03T04:01:52.562Z" agent="5.0 (X11; Linux x86_64) AppleWebKit/537.36 (KHTML, like Gecko) Chrome/89.0.4389.72 Safari/537.36" etag="v7MoCQ_X5AExdUAFsIc0" version="14.5.6" type="github">
  <diagram id="5rramZWKnc8i_aPpKjcv" name="Page-1">
    <mxGraphModel dx="1422" dy="774" grid="1" gridSize="10" guides="1" tooltips="1" connect="1" arrows="1" fold="1" page="1" pageScale="1" pageWidth="827" pageHeight="583" math="0" shadow="0">
      <root>
        <mxCell id="0" />
        <mxCell id="1" parent="0" />
        <mxCell id="nhyTntq4vtOq9OksWfID-1" value="main()" style="shape=process;whiteSpace=wrap;html=1;backgroundOutline=1;" vertex="1" parent="1">
          <mxGeometry x="103" y="250" width="150" height="20" as="geometry" />
        </mxCell>
        <mxCell id="nhyTntq4vtOq9OksWfID-2" style="edgeStyle=orthogonalEdgeStyle;rounded=0;orthogonalLoop=1;jettySize=auto;html=1;exitX=0.5;exitY=1;exitDx=0;exitDy=0;" edge="1" parent="1" source="nhyTntq4vtOq9OksWfID-3" target="nhyTntq4vtOq9OksWfID-8">
          <mxGeometry relative="1" as="geometry" />
        </mxCell>
        <mxCell id="nhyTntq4vtOq9OksWfID-3" value="connect_server()" style="rounded=1;whiteSpace=wrap;html=1;" vertex="1" parent="1">
          <mxGeometry x="103" y="292" width="150" height="18" as="geometry" />
        </mxCell>
        <mxCell id="nhyTntq4vtOq9OksWfID-4" style="edgeStyle=orthogonalEdgeStyle;rounded=0;orthogonalLoop=1;jettySize=auto;html=1;exitX=1;exitY=0.5;exitDx=0;exitDy=0;entryX=0;entryY=0.5;entryDx=0;entryDy=0;" edge="1" parent="1" source="nhyTntq4vtOq9OksWfID-8" target="nhyTntq4vtOq9OksWfID-11">
          <mxGeometry relative="1" as="geometry" />
        </mxCell>
        <mxCell id="nhyTntq4vtOq9OksWfID-5" style="edgeStyle=orthogonalEdgeStyle;rounded=0;orthogonalLoop=1;jettySize=auto;html=1;exitX=1;exitY=0.5;exitDx=0;exitDy=0;entryX=0;entryY=0.5;entryDx=0;entryDy=0;" edge="1" parent="1" source="nhyTntq4vtOq9OksWfID-8" target="nhyTntq4vtOq9OksWfID-12">
          <mxGeometry relative="1" as="geometry" />
        </mxCell>
        <mxCell id="nhyTntq4vtOq9OksWfID-6" style="edgeStyle=orthogonalEdgeStyle;rounded=0;orthogonalLoop=1;jettySize=auto;html=1;exitX=1;exitY=0.5;exitDx=0;exitDy=0;entryX=0;entryY=0.5;entryDx=0;entryDy=0;" edge="1" parent="1" source="nhyTntq4vtOq9OksWfID-8" target="nhyTntq4vtOq9OksWfID-13">
          <mxGeometry relative="1" as="geometry" />
        </mxCell>
        <mxCell id="nhyTntq4vtOq9OksWfID-7" style="edgeStyle=orthogonalEdgeStyle;rounded=0;orthogonalLoop=1;jettySize=auto;html=1;exitX=0.5;exitY=1;exitDx=0;exitDy=0;entryX=0.5;entryY=0;entryDx=0;entryDy=0;" edge="1" parent="1" source="nhyTntq4vtOq9OksWfID-8" target="nhyTntq4vtOq9OksWfID-9">
          <mxGeometry relative="1" as="geometry" />
        </mxCell>
        <mxCell id="nhyTntq4vtOq9OksWfID-8" value="create_threads()" style="rounded=1;whiteSpace=wrap;html=1;" vertex="1" parent="1">
          <mxGeometry x="103" y="330" width="150" height="18" as="geometry" />
        </mxCell>
        <mxCell id="nhyTntq4vtOq9OksWfID-9" value="create_tasks()" style="rounded=1;whiteSpace=wrap;html=1;" vertex="1" parent="1">
          <mxGeometry x="103" y="370" width="150" height="18" as="geometry" />
        </mxCell>
        <mxCell id="nhyTntq4vtOq9OksWfID-10" style="edgeStyle=orthogonalEdgeStyle;rounded=0;orthogonalLoop=1;jettySize=auto;html=1;exitX=0.5;exitY=0;exitDx=0;exitDy=0;entryX=0;entryY=0.5;entryDx=0;entryDy=0;" edge="1" parent="1" source="nhyTntq4vtOq9OksWfID-11" target="nhyTntq4vtOq9OksWfID-14">
          <mxGeometry relative="1" as="geometry" />
        </mxCell>
        <mxCell id="nhyTntq4vtOq9OksWfID-11" value="Thread 1" style="rounded=1;whiteSpace=wrap;html=1;" vertex="1" parent="1">
          <mxGeometry x="323" y="302" width="120" height="18" as="geometry" />
        </mxCell>
        <mxCell id="nhyTntq4vtOq9OksWfID-12" value="Thread 2" style="rounded=1;whiteSpace=wrap;html=1;" vertex="1" parent="1">
          <mxGeometry x="323" y="330" width="120" height="18" as="geometry" />
        </mxCell>
        <mxCell id="nhyTntq4vtOq9OksWfID-13" value="Thread ..." style="rounded=1;whiteSpace=wrap;html=1;" vertex="1" parent="1">
          <mxGeometry x="323" y="358" width="120" height="18" as="geometry" />
        </mxCell>
        <mxCell id="nhyTntq4vtOq9OksWfID-14" value="scheduler()" style="shape=process;whiteSpace=wrap;html=1;backgroundOutline=1;" vertex="1" parent="1">
          <mxGeometry x="503" y="250" width="210" height="20" as="geometry" />
        </mxCell>
        <mxCell id="nhyTntq4vtOq9OksWfID-15" value="receive_message_from_server()" style="rounded=1;whiteSpace=wrap;html=1;" vertex="1" parent="1">
          <mxGeometry x="533" y="284" width="180" height="18" as="geometry" />
        </mxCell>
        <mxCell id="nhyTntq4vtOq9OksWfID-16" value="send_message_to_server()" style="rounded=1;whiteSpace=wrap;html=1;" vertex="1" parent="1">
          <mxGeometry x="533" y="312" width="180" height="18" as="geometry" />
        </mxCell>
        <mxCell id="nhyTntq4vtOq9OksWfID-17" value="0" style="rounded=1;whiteSpace=wrap;html=1;" vertex="1" parent="1">
          <mxGeometry x="503" y="284" width="20" height="18" as="geometry" />
        </mxCell>
        <mxCell id="nhyTntq4vtOq9OksWfID-18" value="1" style="rounded=1;whiteSpace=wrap;html=1;" vertex="1" parent="1">
          <mxGeometry x="503" y="312" width="20" height="18" as="geometry" />
        </mxCell>
        <mxCell id="nhyTntq4vtOq9OksWfID-19" value="recv_msg()" style="rounded=1;whiteSpace=wrap;html=1;" vertex="1" parent="1">
          <mxGeometry x="503" y="110" width="120" height="18" as="geometry" />
        </mxCell>
        <mxCell id="nhyTntq4vtOq9OksWfID-20" value="msg_format()" style="rounded=1;whiteSpace=wrap;html=1;" vertex="1" parent="1">
          <mxGeometry x="503" y="160" width="120" height="18" as="geometry" />
        </mxCell>
        <mxCell id="nhyTntq4vtOq9OksWfID-21" value="&lt;ul&gt;&lt;li&gt;receive message from server&lt;/li&gt;&lt;/ul&gt;" style="text;html=1;strokeColor=none;fillColor=none;align=center;verticalAlign=middle;whiteSpace=wrap;rounded=0;" vertex="1" parent="1">
          <mxGeometry x="503" y="130" width="200" height="20" as="geometry" />
        </mxCell>
        <mxCell id="nhyTntq4vtOq9OksWfID-22" value="&lt;ul&gt;&lt;li&gt;format message before sending&lt;/li&gt;&lt;/ul&gt;" style="text;html=1;strokeColor=none;fillColor=none;align=center;verticalAlign=middle;whiteSpace=wrap;rounded=0;" vertex="1" parent="1">
          <mxGeometry x="503" y="178" width="220" height="20" as="geometry" />
        </mxCell>
      </root>
    </mxGraphModel>
  </diagram>
</mxfile>
